<?xml version="1.0" encoding="utf-8"?>
<!-- Generator: Adobe Illustrator 21.1.0, SVG Export Plug-In . SVG Version: 6.00 Build 0)  -->
<svg version="1.1" id="Layer_1" xmlns="http://www.w3.org/2000/svg" xmlns:xlink="http://www.w3.org/1999/xlink" x="0px" y="0px"
	 viewBox="0 0 34.2 42" style="enable-background:new 0 0 34.2 42;" xml:space="preserve">
<style type="text/css">
	.st0{fill:#004A84;}
	.st1{fill:#C4A565;}
</style>
<path class="st0" d="M0,0h34.2c0,10.1-1.7,30.7-17.1,42C1.8,30.7,0,10.1,0,0"/>
<path class="st1" d="M27.9,20c0.1-0.7,0.6-2.3,0.6-2.3l-0.6-0.3c0,0-1.3,1.8-1.6,3.7h-0.3c0.9-8-1.5-17.5-1.5-17.5L23,3
	c0,0,0.2,1.4,0.3,7.3c0.1,4.6-0.1,7.7-0.9,10.9H12c-0.8-3.1-1-6.3-0.9-10.9C11.1,4.4,11.4,3,11.4,3L9.8,3.7c0,0-2.4,9.6-1.5,17.5H8
	v-1.1h-1v3.5h1v-1h0.6c1.4,3.7,6.7,11.2,6.7,11.2l1.8-1.3c0,0-1.4-2.4-2.2-3.9c-1.1-2.2-2-4.1-2.6-5.9H22c-0.6,1.8-1.4,3.7-2.6,5.9
	c-0.8,1.6-2.2,3.9-2.2,3.9l1.8,1.3c0,0,5.3-7.5,6.7-11.2h0.6c0.1,1.1,0.4,2.3,0.6,2.6c0.2,0.4,0.4,1,0.4,1l0.7-0.3
	c0,0-0.4-2.1-0.5-3.2C27.5,22,27.7,21.1,27.9,20"/>
</svg>
